<?xml version="1.0" encoding="utf-8"?>
<!-- Generator: Adobe Illustrator 21.0.0, SVG Export Plug-In . SVG Version: 6.00 Build 0)  -->
<svg version="1.1" id="图层_1" xmlns="http://www.w3.org/2000/svg" xmlns:xlink="http://www.w3.org/1999/xlink" x="0px" y="0px"
	 viewBox="0 0 20 20" style="enable-background:new 0 0 20 20;" xml:space="preserve">
<style type="text/css">
	.st0{fill:#9DA2B3;}
</style>
<path class="st0" d="M17,5.5H3C2.7,5.5,2.5,5.3,2.5,5S2.7,4.5,3,4.5h14c0.3,0,0.5,0.2,0.5,0.5S17.3,5.5,17,5.5z"/>
<path class="st0" d="M17,8H9C8.7,8,8.5,7.8,8.5,7.5S8.7,7,9,7h8c0.3,0,0.5,0.2,0.5,0.5S17.3,8,17,8z"/>
<path class="st0" d="M17,13H9c-0.3,0-0.5-0.2-0.5-0.5S8.7,12,9,12h8c0.3,0,0.5,0.2,0.5,0.5S17.3,13,17,13z"/>
<path class="st0" d="M17,10.5H3c-0.3,0-0.5-0.2-0.5-0.5S2.7,9.5,3,9.5h14c0.3,0,0.5,0.2,0.5,0.5S17.3,10.5,17,10.5z"/>
<path class="st0" d="M17,15.5H3c-0.3,0-0.5-0.2-0.5-0.5s0.2-0.5,0.5-0.5h14c0.3,0,0.5,0.2,0.5,0.5S17.3,15.5,17,15.5z"/>
</svg>
