<?xml version="1.0" encoding="utf-8"?>
<!-- Generator: Adobe Illustrator 21.0.0, SVG Export Plug-In . SVG Version: 6.00 Build 0)  -->
<svg version="1.1" id="图层_1" xmlns="http://www.w3.org/2000/svg" xmlns:xlink="http://www.w3.org/1999/xlink" x="0px" y="0px"
	 viewBox="0 0 20 20" style="enable-background:new 0 0 20 20;" xml:space="preserve">
<style type="text/css">
	.st0{fill:#9DA2B3;}
</style>
<g id="Symbols">
	<g id="font-bold">
		<path id="B" class="st0" d="M9.8,8.2c0.6,0,1-0.1,1.3-0.2c0.5-0.2,0.7-0.7,0.7-1.3c0-0.7-0.3-1.1-0.8-1.3
			c-0.3-0.1-0.7-0.2-1.3-0.2H7.4v3.1H9.8z M10.3,12.8c0.8,0,1.4-0.2,1.8-0.7c0.2-0.3,0.3-0.7,0.3-1.1c0-0.7-0.3-1.2-1-1.5
			c-0.3-0.1-0.8-0.2-1.4-0.2H7.4v3.5H10.3z M6,4h4.3c1.2,0,2,0.3,2.5,1c0.3,0.4,0.4,0.9,0.4,1.4c0,0.6-0.2,1.1-0.5,1.6
			c-0.2,0.2-0.5,0.4-0.8,0.6c0.5,0.2,0.9,0.4,1.2,0.7c0.4,0.4,0.7,1,0.7,1.8c0,0.6-0.2,1.2-0.6,1.7c-0.6,0.8-1.6,1.2-2.9,1.2H6V4z"
			/>
	</g>
</g>
</svg>
