<?xml version="1.0" encoding="utf-8"?>
<!-- Generator: Adobe Illustrator 21.0.0, SVG Export Plug-In . SVG Version: 6.00 Build 0)  -->
<svg version="1.1" id="图层_1" xmlns="http://www.w3.org/2000/svg" xmlns:xlink="http://www.w3.org/1999/xlink" x="0px" y="0px"
	 viewBox="0 0 20 20" style="enable-background:new 0 0 20 20;" xml:space="preserve">
<style type="text/css">
	.st0{fill:#9DA2B3;}
</style>
<g id="Symbols">
	<g id="font-underline">
		<rect x="5.5" y="14" class="st0" width="9" height="1"/>
		<path id="U" class="st0" d="M7.4,4v5c0,0.7,0.1,1.3,0.4,1.8c0.4,0.7,1.1,1.1,2.1,1.1c1.2,0,2-0.4,2.4-1.1c0.2-0.4,0.3-1,0.3-1.7V4
			H14v4.5c0,1.2-0.2,2.1-0.5,2.8C12.9,12.4,11.7,13,10,13s-2.9-0.6-3.5-1.8C6.2,10.6,6,9.7,6,8.5V4H7.4z"/>
	</g>
</g>
</svg>
