<?xml version="1.0" encoding="utf-8"?>
<!-- Generator: Adobe Illustrator 21.0.0, SVG Export Plug-In . SVG Version: 6.00 Build 0)  -->
<svg version="1.1" id="图层_1" xmlns="http://www.w3.org/2000/svg" xmlns:xlink="http://www.w3.org/1999/xlink" x="0px" y="0px"
	 viewBox="0 0 20 20" style="enable-background:new 0 0 20 20;" xml:space="preserve">
<style type="text/css">
	.st0{fill:#9DA2B3;}
</style>
<path class="st0" d="M14.5,4h-9C4.7,4,4,4.7,4,5.5v9C4,15.3,4.7,16,5.5,16h9c0.8,0,1.5-0.7,1.5-1.5v-9C16,4.7,15.3,4,14.5,4z
	 M15,5.5v4h-4.5V5h4C14.8,5,15,5.2,15,5.5z M5.5,5h4v4.5H5v-4C5,5.2,5.2,5,5.5,5z M5,14.5v-4h4.5V15h-4C5.2,15,5,14.8,5,14.5z
	 M14.5,15h-4v-4.5H15v4C15,14.8,14.8,15,14.5,15z"/>
</svg>
