<?xml version="1.0" encoding="utf-8"?>
<!-- Generator: Adobe Illustrator 21.0.0, SVG Export Plug-In . SVG Version: 6.00 Build 0)  -->
<svg version="1.1" id="图层_1" xmlns="http://www.w3.org/2000/svg" xmlns:xlink="http://www.w3.org/1999/xlink" x="0px" y="0px"
	 viewBox="0 0 20 20" style="enable-background:new 0 0 20 20;" xml:space="preserve">
<style type="text/css">
	.st0{fill:#9DA2B3;}
</style>
<g>
	<path class="st0" d="M8.5,11h-4C4.2,11,4,11.2,4,11.5S4.2,12,4.5,12h2.8l-3.1,3.1c-0.2,0.2-0.2,0.5,0,0.7C4.2,16,4.4,16,4.5,16
		s0.3,0,0.4-0.1L8,12.7v2.8C8,15.8,8.2,16,8.5,16S9,15.8,9,15.5v-4C9,11.2,8.8,11,8.5,11z"/>
	<path class="st0" d="M15.5,11c-0.3,0-0.5,0.2-0.5,0.5V15h-3.5c-0.3,0-0.5,0.2-0.5,0.5s0.2,0.5,0.5,0.5h4c0.3,0,0.5-0.2,0.5-0.5v-4
		C16,11.2,15.8,11,15.5,11z"/>
	<path class="st0" d="M11.3,9c0.1,0,0.1,0,0.2,0h4C15.8,9,16,8.8,16,8.5S15.8,8,15.5,8h-2.8l2.6-2.6c0.2-0.2,0.2-0.5,0-0.7
		s-0.5-0.2-0.7,0L12,7.3V4.5C12,4.2,11.8,4,11.5,4S11,4.2,11,4.5v4c0,0.1,0,0.1,0,0.2C11.1,8.8,11.2,8.9,11.3,9z"/>
	<path class="st0" d="M8.5,4h-4C4.2,4,4,4.2,4,4.5v4C4,8.8,4.2,9,4.5,9S5,8.8,5,8.5V5h3.5C8.8,5,9,4.8,9,4.5S8.8,4,8.5,4z"/>
</g>
</svg>
