<?xml version="1.0" encoding="utf-8"?>
<!-- Generator: Adobe Illustrator 21.0.0, SVG Export Plug-In . SVG Version: 6.00 Build 0)  -->
<svg version="1.1" id="图层_1" xmlns="http://www.w3.org/2000/svg" xmlns:xlink="http://www.w3.org/1999/xlink" x="0px" y="0px"
	 viewBox="0 0 20 20" style="enable-background:new 0 0 20 20;" xml:space="preserve">
<style type="text/css">
	.st0{fill:#9DA2B3;}
</style>
<g>
	<path class="st0" d="M15.5,4h-4C11.2,4,11,4.2,11,4.5S11.2,5,11.5,5h2.8l-3.1,3.1c-0.2,0.2-0.2,0.5,0,0.7C11.2,9,11.4,9,11.5,9
		s0.3,0,0.4-0.1L15,5.7v2.8C15,8.8,15.2,9,15.5,9S16,8.8,16,8.5v-4C16,4.2,15.8,4,15.5,4z"/>
	<path class="st0" d="M15.5,11c-0.3,0-0.5,0.2-0.5,0.5V15h-3.5c-0.3,0-0.5,0.2-0.5,0.5s0.2,0.5,0.5,0.5h4c0.3,0,0.5-0.2,0.5-0.5v-4
		C16,11.2,15.8,11,15.5,11z"/>
	<path class="st0" d="M8.5,15H5.7l2.6-2.6c0.2-0.2,0.2-0.5,0-0.7s-0.5-0.2-0.7,0L5,14.3v-2.8C5,11.2,4.8,11,4.5,11S4,11.2,4,11.5v4
		c0,0.1,0,0.1,0,0.2c0.1,0.1,0.1,0.2,0.3,0.3c0.1,0,0.1,0,0.2,0h4C8.8,16,9,15.8,9,15.5S8.8,15,8.5,15z"/>
	<path class="st0" d="M8.5,4h-4C4.2,4,4,4.2,4,4.5v4C4,8.8,4.2,9,4.5,9S5,8.8,5,8.5V5h3.5C8.8,5,9,4.8,9,4.5S8.8,4,8.5,4z"/>
</g>
</svg>
