<?xml version="1.0" encoding="utf-8"?>
<!-- Generator: Adobe Illustrator 21.0.0, SVG Export Plug-In . SVG Version: 6.00 Build 0)  -->
<svg version="1.1" id="图层_1" xmlns="http://www.w3.org/2000/svg" xmlns:xlink="http://www.w3.org/1999/xlink" x="0px" y="0px"
	 viewBox="0 0 20 20" style="enable-background:new 0 0 20 20;" xml:space="preserve">
<style type="text/css">
	.st0{fill:#9DA2B3;}
</style>
<g>
	<path class="st0" d="M16.7,12.5l-3.5-3.5c-0.2-0.2-0.5-0.2-0.7,0s-0.2,0.5,0,0.7l3.2,3.2l-2.8,2.8l-3.2-3.2c-0.2-0.2-0.5-0.2-0.7,0
		s-0.2,0.5,0,0.7l3.5,3.5c0.1,0.1,0.2,0.1,0.4,0.1s0.3,0,0.4-0.1l3.5-3.5C16.9,13,16.9,12.7,16.7,12.5z"/>
	<path class="st0" d="M4.3,7.2l2.8-2.8l3.2,3.2c0.1,0.1,0.2,0.1,0.4,0.1s0.3,0,0.4-0.1c0.2-0.2,0.2-0.5,0-0.7L7.5,3.3
		C7.3,3.1,7,3.1,6.8,3.3L3.3,6.8C3.1,7,3.1,7.3,3.3,7.5l3.5,3.5c0.1,0.1,0.2,0.1,0.4,0.1s0.3,0,0.4-0.1c0.2-0.2,0.2-0.5,0-0.7
		L4.3,7.2z"/>
	<path class="st0" d="M6.8,6.8C6.6,7,6.6,7.3,6.8,7.5l5.7,5.7c0.1,0.1,0.2,0.1,0.4,0.1s0.3,0,0.4-0.1c0.2-0.2,0.2-0.5,0-0.7L7.5,6.8
		C7.3,6.6,7,6.6,6.8,6.8z"/>
</g>
</svg>
