<?xml version="1.0" encoding="utf-8"?>
<!-- Generator: Adobe Illustrator 21.0.0, SVG Export Plug-In . SVG Version: 6.00 Build 0)  -->
<svg version="1.1" id="图层_1" xmlns="http://www.w3.org/2000/svg" xmlns:xlink="http://www.w3.org/1999/xlink" x="0px" y="0px"
	 viewBox="0 0 20 20" style="enable-background:new 0 0 20 20;" xml:space="preserve">
<style type="text/css">
	.st0{fill:#9DA2B3;}
	.st1{enable-background:new    ;}
</style>
<g id="Symbols">
	<g id="font-list-number">
		<path class="st0" d="M17,5.5H8C7.7,5.5,7.5,5.3,7.5,5S7.7,4.5,8,4.5h9c0.3,0,0.5,0.2,0.5,0.5S17.3,5.5,17,5.5z"/>
		<path class="st0" d="M17,10.5H8c-0.3,0-0.5-0.2-0.5-0.5S7.7,9.5,8,9.5h9c0.3,0,0.5,0.2,0.5,0.5S17.3,10.5,17,10.5z"/>
		<path class="st0" d="M17,15.5H8c-0.3,0-0.5-0.2-0.5-0.5s0.2-0.5,0.5-0.5h9c0.3,0,0.5,0.2,0.5,0.5S17.3,15.5,17,15.5z"/>
		<g class="st1">
			<path class="st0" d="M3.3,11.3c0.1-0.2,0.3-0.5,0.7-0.8c0.3-0.2,0.5-0.4,0.6-0.5c0.1-0.2,0.2-0.3,0.2-0.5c0-0.1,0-0.3-0.1-0.4
				C4.7,9.1,4.5,9,4.4,9C4.2,9,4,9.1,3.9,9.3c0,0.1-0.1,0.2-0.1,0.4H3.2c0-0.3,0.1-0.5,0.2-0.7c0.2-0.4,0.5-0.5,1-0.5
				c0.4,0,0.7,0.1,0.9,0.3C5.5,9,5.6,9.2,5.6,9.6c0,0.3-0.1,0.5-0.2,0.7c-0.1,0.1-0.3,0.3-0.5,0.5l-0.3,0.2
				c-0.2,0.1-0.3,0.2-0.4,0.3c-0.1,0.1-0.1,0.1-0.2,0.2h1.5V12H3.2C3.2,11.7,3.2,11.5,3.3,11.3z"/>
		</g>
		<g class="st1">
			<path class="st0" d="M3.8,15.9c0,0.1,0,0.3,0.1,0.4c0.1,0.2,0.2,0.3,0.5,0.3c0.1,0,0.3,0,0.4-0.1s0.2-0.2,0.2-0.4
				c0-0.2-0.1-0.4-0.3-0.5c-0.1,0-0.3-0.1-0.5-0.1v-0.5c0.2,0,0.4,0,0.5-0.1c0.2-0.1,0.2-0.2,0.2-0.4c0-0.1,0-0.2-0.1-0.3
				C4.6,14.1,4.5,14,4.3,14C4.2,14,4,14.1,4,14.2c-0.1,0.1-0.1,0.2-0.1,0.4H3.2c0-0.2,0-0.3,0.1-0.5c0.1-0.1,0.1-0.3,0.3-0.4
				c0.1-0.1,0.2-0.1,0.3-0.2c0.1,0,0.3-0.1,0.5-0.1c0.3,0,0.6,0.1,0.8,0.3c0.2,0.2,0.3,0.4,0.3,0.7c0,0.2-0.1,0.4-0.2,0.5
				C5.2,15,5.1,15.1,5,15.1c0.1,0,0.2,0.1,0.3,0.2c0.2,0.2,0.3,0.4,0.3,0.7c0,0.3-0.1,0.6-0.3,0.8c-0.2,0.2-0.5,0.3-0.9,0.3
				c-0.5,0-0.8-0.2-1-0.5c-0.1-0.2-0.2-0.4-0.2-0.7H3.8z"/>
		</g>
		<g class="st1">
			<path class="st0" d="M3.3,4.6V4.1c0.2,0,0.4,0,0.5,0c0.1,0,0.3-0.1,0.3-0.2c0.1-0.1,0.1-0.1,0.1-0.3c0-0.1,0-0.1,0-0.1h0.6V7H4.2
				V4.6H3.3z"/>
		</g>
	</g>
</g>
</svg>
