<?xml version="1.0" encoding="utf-8"?>
<!-- Generator: Adobe Illustrator 21.0.0, SVG Export Plug-In . SVG Version: 6.00 Build 0)  -->
<svg version="1.1" id="图层_1" xmlns="http://www.w3.org/2000/svg" xmlns:xlink="http://www.w3.org/1999/xlink" x="0px" y="0px"
	 viewBox="0 0 20 20" style="enable-background:new 0 0 20 20;" xml:space="preserve">
<style type="text/css">
	.st0{fill:#9DA2B3;}
</style>
<g id="Symbols">
	<g id="font-list">
		<circle id="Oval-5" class="st0" cx="4" cy="5" r="1"/>
		<circle id="Oval-5-Copy" class="st0" cx="4" cy="10" r="1"/>
		<circle id="Oval-5-Copy-2" class="st0" cx="4" cy="15" r="1"/>
		<path class="st0" d="M16,5.5H7C6.7,5.5,6.5,5.3,6.5,5S6.7,4.5,7,4.5h9c0.3,0,0.5,0.2,0.5,0.5S16.3,5.5,16,5.5z"/>
		<path class="st0" d="M16,10.5H7c-0.3,0-0.5-0.2-0.5-0.5S6.7,9.5,7,9.5h9c0.3,0,0.5,0.2,0.5,0.5S16.3,10.5,16,10.5z"/>
		<path class="st0" d="M16,15.5H7c-0.3,0-0.5-0.2-0.5-0.5s0.2-0.5,0.5-0.5h9c0.3,0,0.5,0.2,0.5,0.5S16.3,15.5,16,15.5z"/>
	</g>
</g>
</svg>
